# xmcd CD database file
#
# Track frame offsets:
#	150
#	10732
#	15520
#	28274
#	39749
#	49568
#	60385
#	71140
#	82300
#	93771
#	104870
#	116649
#	128017
#	135791
#	145547
#	158827
#	167304
#	178573
#	190671
#	203749
#	219953
#	231782
#
# Disc length: 3278 seconds
#
# Revision: 0
# Processed by: cddbd v1.5.2PL0 Copyright (c) Steve Scherf et al.
# Submitted via: CDex 1.70beta2
#
DISCID=1d0ccc16
DTITLE=TIS -Cty - This Is Country - D3
DYEAR=1900
DGENRE=Country
TTITLE0=Patsy Cline - Honky Tonk Merry go Round
TTITLE1=Merle Haggard - Swinging Doors
TTITLE2=Lynn Anderson - Top of the World
TTITLE3=Willie Nelson - Suffering In Silence
TTITLE4=Dolly Parton - Girl Left Along
TTITLE5=Ferlin Husky - Wings of A Dove 
TTITLE6=Patsy Cline - I Cried All the Way To the Alter
TTITLE7=Jack Green - There Goes My Everything
TTITLE8=Lynn Anderson - Listen To A Country Song
TTITLE9=Willie Nelson - Go Away
TTITLE10=Donna Fargo - The Happiest Girl In the Whole USA
TTITLE11=Porter Wagoner - Eat, Drink and Be Merry
TTITLE12=Dolly Parton - Puppy Love
TTITLE13=Don Gibson - Who Cares
TTITLE14=Lynn andersonh - Keep Me In Mind
TTITLE15=Willie Nelson - Slow Down Old World
TTITLE16=Patsy Cline - Just Out of Reach
TTITLE17=Waylon Jennings - Don't Think Twice
TTITLE18=Dolly Parton - Little blossoms
TTITLE19=T.G. Sheppard - Strong Heart
TTITLE20=Lynn Anderson - How Can I Love You
TTITLE21=Doug Stone - Made For Lovin' You
EXTD=
EXTT0=
EXTT1=
EXTT2=
EXTT3=
EXTT4=
EXTT5=
EXTT6=
EXTT7=
EXTT8=
EXTT9=
EXTT10=
EXTT11=
EXTT12=
EXTT13=
EXTT14=
EXTT15=
EXTT16=
EXTT17=
EXTT18=
EXTT19=
EXTT20=
EXTT21=
PLAYORDER=
